<?xml version="1.0" encoding="UTF-8"?>
<svg id="Layer_1" xmlns="http://www.w3.org/2000/svg" version="1.1" viewBox="0 0 1042.77 343.98">
  <!-- Generator: Adobe Illustrator 29.7.0, SVG Export Plug-In . SVG Version: 2.1.1 Build 138)  -->
  <defs>
    <style>
      .st0 {
        letter-spacing: .2em;
      }

      .st0, .st1 {
        fill: #115659;
      }

      .st2, .st3 {
        letter-spacing: .2em;
      }

      .st4 {
        font-family: Montserrat-Regular, Montserrat;
        font-size: 59px;
        letter-spacing: .3em;
      }

      .st4, .st5 {
        fill: #9ec94f;
      }

      .st3, .st6 {
        fill: #28bcb0;
      }

      .st7 {
        font-family: Montserrat-Bold, Montserrat;
        font-size: 88px;
        font-weight: 700;
      }
    </style>
  </defs>
  <g>
    <path class="st6" d="M180.16,47.78c1.45,2.81,2.2,3.98,2.84,6.26,1.8,6.48,1.81,12.2-.99,17.71-10.51,20.61-42.63,41.91-25.13,63.02,11.31,13.65,36.87,21.4,33.15,43.25-2.01,11.8-23.88,30.34-32.16,39.72-36.3,41.14-4.49,87.47,26.71,125.89-10.04-7.18-38.8-30.18-48.13-38.36C88.94,263.65,24.08,204.9,5.69,142.52-9.28,91.72,4.43,28.14,57.08,6.57c42.44-17.39,80.51,2.23,112.27,29.67,2.77,2.39,9.11,9.57,10.81,11.54Z"/>
    <path class="st5" d="M222.54,310.06c-56.62-42.77-36.65-71.27-25.71-86.19,21.8-29.73,56.87-56.44,11.11-84.86-11.12-6.9-34.37-14.77-35.22-29.66-.99-17.24,23.37-22.9,20.26-45.23-1.77-12.71-9.02-15.37-10.25-16.31C204.51,23.56,233.25,2.82,266.86.77c48.06-2.94,84.52,28.34,93.9,74.83,18.78,93.04-123.74,221.25-123.74,221.25l-14.48,13.2Z"/>
  </g>
  <text class="st7" transform="translate(414.99 80.1)"><tspan class="st2"><tspan class="st6" x="0" y="0">A</tspan><tspan class="st1" x="85.01" y="0">FFAIR</tspan></tspan><tspan class="st2"><tspan class="st6" x="0" y="82">R</tspan><tspan class="st1" x="82.28" y="82">ECOVERY</tspan></tspan><tspan class="st3" x="0" y="164">C</tspan><tspan class="st0" x="82.1" y="164">ENTER</tspan></text>
  <text class="st4" transform="translate(418.11 343.63)"><tspan x="0" y="0">SAN DIEGO</tspan></text>
  <rect class="st6" x="422.73" y="271.22" width="484.79" height="4.65"/>
</svg>